<svg width="367" height="100" viewBox="0 0 367 100" fill="none" xmlns="http://www.w3.org/2000/svg">
<path d="M111.386 87.7984V87.8117C111.372 87.9041 111.359 87.9966 111.346 88.1022C111.346 88.1419 111.332 88.1947 111.319 88.2475C111.306 88.3268 111.293 88.3928 111.279 88.4721C110.577 92.3555 108.229 95.9218 104.529 98.0484C97.8582 101.879 89.3439 99.607 85.4979 92.9631L74.8882 74.669H66.9044V72.1989C66.9575 72.1989 66.9972 72.1989 67.0503 72.1989C67.0901 72.1989 67.1299 72.1989 67.1697 72.1989C67.2492 72.1989 67.3288 72.199 67.4084 72.1857C68.5622 72.0801 69.5701 71.4461 70.1669 70.5214C70.2465 70.4026 70.3128 70.2837 70.3791 70.1516C70.6311 69.6497 70.7769 69.0817 70.7769 68.4873C70.7769 68.025 70.6974 67.5891 70.5382 67.1928C70.5382 67.1796 70.525 67.1532 70.525 67.14C70.525 67.1268 70.5117 67.1136 70.5117 67.1004C70.4984 67.074 70.4852 67.0343 70.4719 67.0079C70.4321 66.9155 70.3923 66.823 70.3393 66.7438C70.2597 66.5852 70.1536 66.4267 70.0475 66.2814C70.0343 66.255 70.0077 66.2286 69.9812 66.2022C69.968 66.1758 69.9414 66.1494 69.9282 66.1361L59.2389 47.6836C59.2256 47.6572 59.2124 47.6175 59.1991 47.5911C59.1593 47.4987 59.1195 47.4062 59.0665 47.3269C58.9869 47.1684 58.8808 47.0099 58.7747 46.8646C58.7615 46.8382 58.7349 46.8118 58.7084 46.7854C58.0321 45.9136 56.9578 45.3588 55.7642 45.3588C54.4778 45.3588 53.3373 46.0061 52.6609 47.0099C52.6476 47.0363 52.6344 47.0496 52.6211 47.076C52.5681 47.1552 52.515 47.2477 52.4752 47.3269H47.7937V37.1562H58.3503L59.5174 35.1485C59.7163 34.7787 59.9285 34.4088 60.154 34.0654C60.207 33.9861 60.2601 33.9069 60.3131 33.8276C62.8064 30.116 67.0636 27.6724 71.8777 27.6724C76.4664 27.6724 80.5379 29.8914 83.0709 33.2993L84.6491 36.0071L109.622 79.0807C111.213 81.8281 111.757 84.8793 111.386 87.7984Z" fill="url(#paint0_linear_1275_29)"/>
<path d="M83.0851 33.2992C80.5521 29.8913 76.4806 27.6723 71.8919 27.6723C67.0645 27.6723 62.8207 30.1159 60.3274 33.8275C60.2743 33.9068 60.2213 33.986 60.1682 34.0653C59.9428 34.4219 59.7306 34.7786 59.5317 35.1484L55.752 41.6603L42.4899 64.551L41.6809 65.9379L41.6013 66.07L41.3626 66.4795C41.3095 66.5587 41.2565 66.6512 41.2167 66.7304C41.2034 66.7437 41.2034 66.7569 41.2034 66.7701V66.7833C41.1902 66.8097 41.1769 66.8229 41.1637 66.8493C40.9249 67.338 40.7791 67.8928 40.7791 68.4872C40.7791 70.4157 42.2644 72.0007 44.1476 72.1856C44.267 72.1989 44.3863 72.1989 44.5057 72.1989C44.5455 72.1989 44.5853 72.1989 44.6251 72.1989V74.9331H34.9437V72.1724H28.6575C21.5755 71.4988 16.032 65.5681 16.032 58.3297C16.032 56.1371 16.5359 54.0501 17.451 52.2141L18.3926 50.6026L43.405 7.46293C43.405 7.46293 43.405 7.46293 43.405 7.44972L43.6967 6.94779C46.243 2.56249 50.8185 0.0792523 55.553 0C55.6857 0 55.8315 0 55.9642 0C60.6987 0.0792523 65.2742 2.56249 67.8205 6.94779L68.1122 7.43651L83.0851 33.2992Z" fill="url(#paint1_linear_1275_29)"/>
<path d="M111.495 86.0414C111.495 86.6358 111.455 87.217 111.388 87.7849V87.7981C111.375 87.8906 111.362 87.9831 111.349 88.0887C111.349 88.1284 111.335 88.1812 111.322 88.234C111.309 88.3133 111.296 88.3793 111.282 88.4586C111.256 88.6039 111.229 88.7624 111.189 88.9077C109.863 95.195 104.267 99.9237 97.556 99.9237H13.9385C10.0925 99.9237 6.60453 98.3651 4.08473 95.8555C1.56493 93.3458 0 89.8719 0 86.0414C0 83.3864 0.75594 80.89 2.05563 78.7898L17.4662 52.2007C16.5511 54.0499 16.0471 56.1237 16.0471 58.3163C16.0471 65.5415 21.5907 71.4854 28.6727 72.159C29.1103 72.1987 29.5612 72.2251 30.0121 72.2251C30.4631 72.2251 30.914 72.1987 31.3516 72.159H97.5693C101.415 72.159 104.903 73.7177 107.423 76.2273C109.93 78.7502 111.495 82.2109 111.495 86.0414Z" fill="#FC3B36"/>
<path d="M151.947 10.1734H160.356L180.433 56.3251H168.961L164.984 46.5472H147.058L143.212 56.3251H132L151.947 10.1734ZM155.858 23.6017L150.252 37.9426H161.529L155.858 23.6017Z" fill="black"/>
<path d="M185.075 10.1734H200.329C204.023 10.1734 207.521 10.5862 210.824 11.4119C214.17 12.2376 217.082 13.5848 219.559 15.4534C222.036 17.2786 223.991 19.6688 225.425 22.6239C226.903 25.579 227.642 29.1642 227.642 33.3796C227.642 37.117 226.925 40.4197 225.491 43.2879C224.1 46.1126 222.21 48.5028 219.819 50.4584C217.429 52.3705 214.67 53.8263 211.541 54.8259C208.412 55.8254 205.131 56.3251 201.698 56.3251H185.075V10.1734ZM195.244 46.9383H200.524C202.871 46.9383 205.044 46.6993 207.043 46.2213C209.085 45.7433 210.845 44.961 212.323 43.8746C213.801 42.7447 214.952 41.2889 215.778 39.5071C216.647 37.6819 217.082 35.4656 217.082 32.8581C217.082 30.5983 216.647 28.6428 215.778 26.9914C214.952 25.2965 213.822 23.9059 212.388 22.8195C210.954 21.733 209.259 20.9291 207.304 20.4076C205.392 19.8426 203.371 19.5602 201.241 19.5602H195.244V46.9383Z" fill="black"/>
<path d="M234.538 10.1734H251.747C253.746 10.1734 255.745 10.3255 257.744 10.6297C259.787 10.8904 261.612 11.4553 263.22 12.3245C264.828 13.1502 266.131 14.3235 267.131 15.8445C268.13 17.3656 268.63 19.3863 268.63 21.9069C268.63 24.5143 267.891 26.6872 266.414 28.4255C264.98 30.1203 263.068 31.3371 260.677 32.0759V32.2063C262.198 32.4236 263.567 32.8581 264.784 33.51C266.044 34.1184 267.109 34.9223 267.978 35.9219C268.891 36.8779 269.586 38.0078 270.064 39.3115C270.542 40.6153 270.781 42.0059 270.781 43.4835C270.781 45.9171 270.26 47.9596 269.217 49.611C268.174 51.2189 266.827 52.5226 265.175 53.5221C263.524 54.5217 261.655 55.2387 259.569 55.6733C257.527 56.1078 255.484 56.3251 253.442 56.3251H234.538V10.1734ZM244.707 28.621H252.073C252.855 28.621 253.616 28.5341 254.354 28.3603C255.137 28.1865 255.832 27.904 256.44 27.5129C257.049 27.1217 257.527 26.6003 257.874 25.9484C258.266 25.2965 258.461 24.5143 258.461 23.6017C258.461 22.6456 258.244 21.8634 257.809 21.255C257.418 20.6031 256.897 20.1034 256.245 19.7557C255.593 19.408 254.854 19.169 254.028 19.0387C253.203 18.8648 252.399 18.7779 251.617 18.7779H244.707V28.621ZM244.707 47.7206H253.833C254.615 47.7206 255.397 47.6337 256.18 47.4598C257.005 47.286 257.744 46.9818 258.396 46.5472C259.048 46.1126 259.569 45.5477 259.96 44.8524C260.395 44.1571 260.612 43.3096 260.612 42.3101C260.612 41.2237 260.33 40.3545 259.765 39.7027C259.243 39.0073 258.57 38.4859 257.744 38.1382C256.918 37.7905 256.027 37.5515 255.071 37.4212C254.115 37.2908 253.224 37.2256 252.399 37.2256H244.707V47.7206Z" fill="black"/>
<path d="M276.807 10.1734H294.668C297.015 10.1734 299.231 10.4124 301.317 10.8904C303.446 11.325 305.293 12.0855 306.858 13.1719C308.466 14.2149 309.726 15.649 310.638 17.4742C311.595 19.256 312.073 21.494 312.073 24.1884C312.073 27.4477 311.225 30.2289 309.53 32.5322C307.835 34.792 305.358 36.2261 302.099 36.8345L313.833 56.3251H301.643L291.995 37.8775H286.976V56.3251H276.807V10.1734ZM286.976 29.2729H292.973C293.886 29.2729 294.842 29.2512 295.841 29.2077C296.884 29.1208 297.819 28.9252 298.644 28.621C299.47 28.2734 300.144 27.7519 300.665 27.0566C301.23 26.3612 301.512 25.3834 301.512 24.1232C301.512 22.9498 301.273 22.0155 300.795 21.3202C300.317 20.6249 299.709 20.1034 298.97 19.7557C298.231 19.3646 297.384 19.1038 296.428 18.9735C295.472 18.8431 294.538 18.7779 293.625 18.7779H286.976V29.2729Z" fill="black"/>
<path d="M316.599 33.2492C316.599 29.5554 317.207 26.2091 318.424 23.2106C319.684 20.212 321.423 17.6698 323.639 15.5838C325.855 13.4544 328.485 11.8247 331.527 10.6948C334.569 9.56494 337.893 9 341.5 9C345.107 9 348.431 9.56494 351.474 10.6948C354.516 11.8247 357.145 13.4544 359.361 15.5838C361.577 17.6698 363.294 20.212 364.511 23.2106C365.771 26.2091 366.401 29.5554 366.401 33.2492C366.401 36.9431 365.771 40.2893 364.511 43.2879C363.294 46.2865 361.577 48.8505 359.361 50.9799C357.145 53.0658 354.516 54.6737 351.474 55.8036C348.431 56.9335 345.107 57.4985 341.5 57.4985C337.893 57.4985 334.569 56.9335 331.527 55.8036C328.485 54.6737 325.855 53.0658 323.639 50.9799C321.423 48.8505 319.684 46.2865 318.424 43.2879C317.207 40.2893 316.599 36.9431 316.599 33.2492ZM327.159 33.2492C327.159 35.4221 327.485 37.4212 328.137 39.2464C328.832 41.0281 329.81 42.5926 331.07 43.9398C332.331 45.2435 333.83 46.2647 335.568 47.0035C337.35 47.7423 339.327 48.1117 341.5 48.1117C343.673 48.1117 345.628 47.7423 347.367 47.0035C349.149 46.2647 350.67 45.2435 351.93 43.9398C353.19 42.5926 354.146 41.0281 354.798 39.2464C355.493 37.4212 355.841 35.4221 355.841 33.2492C355.841 31.1198 355.493 29.1425 354.798 27.3173C354.146 25.4921 353.19 23.9276 351.93 22.6239C350.67 21.2767 349.149 20.2337 347.367 19.495C345.628 18.7562 343.673 18.3868 341.5 18.3868C339.327 18.3868 337.35 18.7562 335.568 19.495C333.83 20.2337 332.331 21.2767 331.07 22.6239C329.81 23.9276 328.832 25.4921 328.137 27.3173C327.485 29.1425 327.159 31.1198 327.159 33.2492Z" fill="black"/>
<path d="M134.25 92.9998H136.25V77.9498L142.375 92.9998H143.05L148.975 77.9498V92.9998H151.15V75.1248H148.15L142.8 89.0498L137.275 75.1248H134.25V92.9998Z" fill="black"/>
<path d="M158.786 93.2248C160.711 93.2248 161.886 92.5748 162.861 91.3498V92.9998H164.936V84.3748C164.936 80.7248 162.661 79.6998 160.161 79.6998C157.636 79.6998 155.261 80.7998 154.986 83.7748H157.061C157.261 82.1748 158.261 81.4248 160.061 81.4248C162.061 81.4248 162.861 82.2998 162.861 84.3748V85.3248H160.986C157.636 85.3248 154.436 86.3498 154.436 89.3748C154.436 92.0498 156.361 93.2248 158.786 93.2248ZM158.986 91.5748C157.161 91.5748 156.511 90.7248 156.511 89.3748C156.511 87.4498 158.436 86.7998 161.061 86.7998H162.861V88.4248C162.861 90.4498 161.186 91.5748 158.986 91.5748Z" fill="black"/>
<path d="M169.012 92.9998H171.087V85.8248C171.087 82.5998 172.762 81.7748 175.387 81.6498V79.6998C173.037 79.7748 171.912 80.7998 171.087 82.2748V79.9248H169.012V92.9998Z" fill="black"/>
<path d="M178.412 92.9998H180.487V86.2248L186.287 92.9998H188.812L182.737 85.9998L188.337 79.9248H185.912L180.487 85.9498V73.6748H178.412V92.9998Z" fill="black"/>
<path d="M196.164 93.2248C199.114 93.2248 201.289 91.8498 201.739 89.2248H199.664C199.389 90.7498 198.214 91.4998 196.189 91.4998C193.514 91.4998 192.089 89.8498 191.989 86.8748H201.839V86.1998C201.839 81.5248 198.989 79.6998 195.964 79.6998C192.364 79.6998 189.839 82.4498 189.839 86.3998V86.5998C189.839 90.6248 192.464 93.2248 196.164 93.2248ZM192.064 85.1998C192.414 82.8748 193.839 81.4248 195.964 81.4248C198.114 81.4248 199.514 82.4998 199.714 85.1998H192.064Z" fill="black"/>
<path d="M208.998 93.1748C209.848 93.1748 210.348 93.0498 210.773 92.8998V91.1498C210.323 91.3248 209.823 91.4248 209.173 91.4248C208.123 91.4248 207.548 90.7998 207.548 89.5248V81.6748H210.598V79.9248H207.548V76.9498H205.473V79.9248H203.598V81.6748H205.473V89.7248C205.473 91.7748 206.623 93.1748 208.998 93.1748Z" fill="black"/>
<path d="M213.96 92.9998H216.035V79.9248H213.96V92.9998ZM214.96 77.1998C215.71 77.1998 216.335 76.5748 216.335 75.8248C216.335 75.0748 215.71 74.4498 214.96 74.4498C214.21 74.4498 213.585 75.0748 213.585 75.8248C213.585 76.5748 214.21 77.1998 214.96 77.1998Z" fill="black"/>
<path d="M220.282 92.9998H222.357V85.0748C222.357 82.7248 224.082 81.4998 226.007 81.4998C228.107 81.4998 229.082 82.5248 229.082 84.8248V92.9998H231.157V84.9748C231.157 81.1748 229.257 79.6998 226.557 79.6998C224.407 79.6998 222.957 80.7748 222.357 81.9998V79.9248H220.282V92.9998Z" fill="black"/>
<path d="M240.448 97.7748C244.098 97.7748 246.673 95.9248 246.698 92.1248V79.9248H244.623V82.0248C243.873 80.7498 242.523 79.6998 240.348 79.6998C236.748 79.6998 234.248 82.6498 234.248 86.1998V86.3748C234.248 89.9748 236.773 92.5748 240.198 92.5748C242.098 92.5748 243.873 91.3748 244.623 90.0998V91.9998C244.623 94.7998 242.998 96.0248 240.423 96.0248C238.198 96.0248 236.948 95.2498 236.648 93.7498H234.523C234.873 95.9498 236.573 97.7748 240.448 97.7748ZM240.423 90.8498C238.223 90.8498 236.398 89.1498 236.398 86.2998V86.0998C236.398 83.3498 237.948 81.4248 240.548 81.4248C243.098 81.4248 244.698 83.1248 244.698 86.0498V86.2248C244.698 89.1498 242.848 90.8498 240.423 90.8498Z" fill="black"/>
<path d="M263.438 93.2248C266.988 93.2248 269.613 90.9498 269.613 87.9498C269.613 84.5748 267.513 83.3748 263.538 82.7498C259.888 82.1998 259.238 81.2998 259.238 79.5498C259.238 77.8748 260.513 76.6498 262.963 76.6498C265.438 76.6498 266.738 77.5748 267.163 79.8248H269.113C268.763 76.6498 266.538 74.8998 262.963 74.8998C259.588 74.8998 257.213 76.9998 257.213 79.7498C257.213 82.9248 259.438 84.0998 263.188 84.6748C266.588 85.2248 267.513 86.0748 267.513 88.0998C267.513 90.1248 265.738 91.4748 263.438 91.4748C259.838 91.4748 258.988 89.6748 258.713 87.5498H256.613C256.938 90.5998 258.663 93.2248 263.438 93.2248Z" fill="black"/>
<path d="M278.637 91.4998C275.987 91.4998 274.362 89.5498 274.362 86.5748V86.3748C274.362 83.3748 276.012 81.4248 278.637 81.4248C281.237 81.4248 282.912 83.3748 282.912 86.3998V86.5748C282.912 89.5248 281.262 91.4998 278.637 91.4998ZM278.612 93.2248C282.337 93.2248 285.062 90.4998 285.062 86.5498V86.3498C285.062 82.4248 282.337 79.6998 278.637 79.6998C274.937 79.6998 272.212 82.4498 272.212 86.3748V86.5748C272.212 90.3998 274.887 93.2248 278.612 93.2248Z" fill="black"/>
<path d="M288.325 92.9998H290.425V73.6748H288.325V92.9998Z" fill="black"/>
<path d="M299.096 93.2248C301.196 93.2248 302.646 92.1498 303.246 90.9248V92.9998H305.321V79.9248H303.246V87.8498C303.246 90.1998 301.496 91.4248 299.646 91.4248C297.596 91.4248 296.621 90.3998 296.621 88.0998V79.9248H294.546V88.1998C294.546 91.7998 296.496 93.2248 299.096 93.2248Z" fill="black"/>
<path d="M313.49 93.1748C314.34 93.1748 314.84 93.0498 315.265 92.8998V91.1498C314.815 91.3248 314.315 91.4248 313.665 91.4248C312.615 91.4248 312.04 90.7998 312.04 89.5248V81.6748H315.09V79.9248H312.04V76.9498H309.965V79.9248H308.09V81.6748H309.965V89.7248C309.965 91.7748 311.115 93.1748 313.49 93.1748Z" fill="black"/>
<path d="M318.452 92.9998H320.527V79.9248H318.452V92.9998ZM319.452 77.1998C320.202 77.1998 320.827 76.5748 320.827 75.8248C320.827 75.0748 320.202 74.4498 319.452 74.4498C318.702 74.4498 318.077 75.0748 318.077 75.8248C318.077 76.5748 318.702 77.1998 319.452 77.1998Z" fill="black"/>
<path d="M330.224 91.4998C327.574 91.4998 325.949 89.5498 325.949 86.5748V86.3748C325.949 83.3748 327.599 81.4248 330.224 81.4248C332.824 81.4248 334.499 83.3748 334.499 86.3998V86.5748C334.499 89.5248 332.849 91.4998 330.224 91.4998ZM330.199 93.2248C333.924 93.2248 336.649 90.4998 336.649 86.5498V86.3498C336.649 82.4248 333.924 79.6998 330.224 79.6998C326.524 79.6998 323.799 82.4498 323.799 86.3748V86.5748C323.799 90.3998 326.474 93.2248 330.199 93.2248Z" fill="black"/>
<path d="M339.862 92.9998H341.937V85.0748C341.937 82.7248 343.662 81.4998 345.587 81.4998C347.687 81.4998 348.662 82.5248 348.662 84.8248V92.9998H350.737V84.9748C350.737 81.1748 348.837 79.6998 346.137 79.6998C343.987 79.6998 342.537 80.7748 341.937 81.9998V79.9248H339.862V92.9998Z" fill="black"/>
<path d="M358.853 93.2248C362.028 93.2248 363.653 91.6248 363.653 89.2498C363.653 86.4748 361.753 85.8748 359.053 85.3748C356.653 84.9498 356.003 84.4748 356.003 83.2998C356.003 82.1748 356.978 81.4248 358.478 81.4248C360.128 81.4248 360.928 82.0498 361.228 83.4748H363.228C362.878 80.6498 360.853 79.6998 358.503 79.6998C356.453 79.6998 354.078 80.9498 354.078 83.3748C354.078 85.6498 355.228 86.5998 358.628 87.2248C360.653 87.5998 361.678 88.0498 361.678 89.4248C361.678 90.8248 360.803 91.4998 358.828 91.4998C356.728 91.4998 355.903 90.5248 355.753 88.9748H353.728C353.853 91.6498 355.728 93.2248 358.853 93.2248Z" fill="black"/>
<defs>
<linearGradient id="paint0_linear_1275_29" x1="61.3154" y1="23.8456" x2="89.7029" y2="85.1625" gradientUnits="userSpaceOnUse">
<stop stop-color="#FE3B2F"/>
<stop offset="1" stop-color="#FFCF00"/>
</linearGradient>
<linearGradient id="paint1_linear_1275_29" x1="56.7746" y1="11.355" x2="13.6257" y2="88.5689" gradientUnits="userSpaceOnUse">
<stop stop-color="#0029FF"/>
<stop offset="1" stop-color="#24A3FF"/>
</linearGradient>
</defs>
</svg>
